<svg width="24" height="24" viewBox="0 0 24 24" xmlns="http://www.w3.org/2000/svg">
    <g fill="none" fill-rule="evenodd">
        <path d="M0 0h24v24H0z"/>
        <path d="M12 4a8 8 0 1 1 0 16 8 8 0 0 1 0-16zm0 1a7 7 0 1 0 0 14 7 7 0 0 0 0-14z" fill="#B0BEC5"/>
        <path d="m12.242 13.195.126-.803a.565.565 0 0 1 .168-.316c.094-.094.205-.19.333-.286l.41-.311c.145-.11.277-.24.399-.39.12-.15.221-.328.302-.531.08-.204.121-.445.121-.723a1.89 1.89 0 0 0-.154-.776 1.68 1.68 0 0 0-.434-.591 1.96 1.96 0 0 0-.674-.377 2.727 2.727 0 0 0-.872-.132c-.235 0-.453.021-.655.063a2.995 2.995 0 0 0-1.042.432 3.824 3.824 0 0 0-.41.313l.358.567a.3.3 0 0 0 .286.165.352.352 0 0 0 .187-.069c.07-.046.155-.097.256-.154a1.777 1.777 0 0 1 .9-.223c.142 0 .275.02.398.061.123.04.228.098.316.173a.802.802 0 0 1 .28.624c0 .206-.043.383-.129.531a1.731 1.731 0 0 1-.322.402c-.128.119-.265.229-.412.33-.147.1-.28.205-.399.313a1.38 1.38 0 0 0-.286.358.729.729 0 0 0-.074.454l.094.896h.929zm-.512 2.882a.84.84 0 0 0 .592-.237.817.817 0 0 0 .245-.588.815.815 0 0 0-.245-.588.875.875 0 0 0-.264-.176.81.81 0 0 0-.328-.066.829.829 0 0 0-.767.505.846.846 0 0 0-.063.325.84.84 0 0 0 .236.588.796.796 0 0 0 .264.174.86.86 0 0 0 .33.063z" fill="#B0BEC5"/>
    </g>
</svg>
